<svg id="os" width="78" height="78" viewBox="0 0 78 78" fill="none" xmlns="http://www.w3.org/2000/svg">
<rect x="28.8658" y="0.720764" width="56" height="56" transform="rotate(30.1716 28.8658 0.720764)" fill="black"/>
<path d="M61 26H45.3541C44.5363 26 43.8008 26.4979 43.4971 27.2572L34.5029 49.7428C34.1992 50.5021 33.4637 51 32.6459 51H17" stroke="white" stroke-width="2" stroke-linecap="round" stroke-linejoin="round"/>
<path d="M34.1055 39.0195C34.1055 40.6914 33.8242 42.1523 33.2617 43.4023C32.6992 44.6445 31.9023 45.5938 30.8711 46.25C29.8398 46.9062 28.6367 47.2344 27.2617 47.2344C25.918 47.2344 24.7266 46.9062 23.6875 46.25C22.6484 45.5859 21.8398 44.6445 21.2617 43.4258C20.6914 42.1992 20.3984 40.7812 20.3828 39.1719V37.9414C20.3828 36.3008 20.668 34.8516 21.2383 33.5938C21.8086 32.3359 22.6133 31.375 23.6523 30.7109C24.6992 30.0391 25.8945 29.7031 27.2383 29.7031C28.6055 29.7031 29.8086 30.0352 30.8477 30.6992C31.8945 31.3555 32.6992 32.3125 33.2617 33.5703C33.8242 34.8203 34.1055 36.2773 34.1055 37.9414V39.0195ZM31.8672 37.918C31.8672 35.8945 31.4609 34.3438 30.6484 33.2656C29.8359 32.1797 28.6992 31.6367 27.2383 31.6367C25.8164 31.6367 24.6953 32.1797 23.875 33.2656C23.0625 34.3438 22.6445 35.8438 22.6211 37.7656V39.0195C22.6211 40.9805 23.0312 42.5234 23.8516 43.6484C24.6797 44.7656 25.8164 45.3242 27.2617 45.3242C28.7148 45.3242 29.8398 44.7969 30.6367 43.7422C31.4336 42.6797 31.8438 41.1602 31.8672 39.1836V37.918Z" fill="white"/>
<path d="M51.0078 39.3945C49.0781 38.8398 47.6719 38.1602 46.7891 37.3555C45.9141 36.543 45.4766 35.543 45.4766 34.3555C45.4766 33.0117 46.0117 31.9023 47.082 31.0273C48.1602 30.1445 49.5586 29.7031 51.2773 29.7031C52.4492 29.7031 53.4922 29.9297 54.4062 30.3828C55.3281 30.8359 56.0391 31.4609 56.5391 32.2578C57.0469 33.0547 57.3008 33.9258 57.3008 34.8711H55.0391C55.0391 33.8398 54.7109 33.0312 54.0547 32.4453C53.3984 31.8516 52.4727 31.5547 51.2773 31.5547C50.168 31.5547 49.3008 31.8008 48.6758 32.293C48.0586 32.7773 47.75 33.4531 47.75 34.3203C47.75 35.0156 48.043 35.6055 48.6289 36.0898C49.2227 36.5664 50.2266 37.0039 51.6406 37.4023C53.0625 37.8008 54.1719 38.2422 54.9688 38.7266C55.7734 39.2031 56.3672 39.7617 56.75 40.4023C57.1406 41.043 57.3359 41.7969 57.3359 42.6641C57.3359 44.0469 56.7969 45.1562 55.7188 45.9922C54.6406 46.8203 53.1992 47.2344 51.3945 47.2344C50.2227 47.2344 49.1289 47.0117 48.1133 46.5664C47.0977 46.1133 46.3125 45.4961 45.7578 44.7148C45.2109 43.9336 44.9375 43.0469 44.9375 42.0547H47.1992C47.1992 43.0859 47.5781 43.9023 48.3359 44.5039C49.1016 45.0977 50.1211 45.3945 51.3945 45.3945C52.582 45.3945 53.4922 45.1523 54.125 44.668C54.7578 44.1836 55.0742 43.5234 55.0742 42.6875C55.0742 41.8516 54.7812 41.207 54.1953 40.7539C53.6094 40.293 52.5469 39.8398 51.0078 39.3945Z" fill="white"/>
</svg>
