<svg width="32" height="32" viewBox="0 0 32 32" fill="none" xmlns="http://www.w3.org/2000/svg">
<circle cx="16" cy="16" r="15.5" fill="white" stroke="black"/>
<path d="M10.5469 24.2266L14.2148 25.709V26.8574L9.42188 24.6367V23.7812L14.2148 21.5664V22.7148L10.5469 24.2266ZM19.7637 24.1914L15.8906 22.6738V21.5605L20.8945 23.7754V24.6309L15.8906 26.8516V25.7266L19.7637 24.1914Z" fill="black"/>
<path d="M4.5332 12.7715C4.5332 12.1504 4.6543 11.5918 4.89648 11.0957C5.14258 10.5996 5.48242 10.2168 5.91602 9.94727C6.35352 9.67773 6.85156 9.54297 7.41016 9.54297C8.27344 9.54297 8.9707 9.8418 9.50195 10.4395C10.0371 11.0371 10.3047 11.832 10.3047 12.8242V12.9004C10.3047 13.5176 10.1855 14.0723 9.94727 14.5645C9.71289 15.0527 9.375 15.4336 8.93359 15.707C8.49609 15.9805 7.99219 16.1172 7.42188 16.1172C6.5625 16.1172 5.86523 15.8184 5.33008 15.2207C4.79883 14.623 4.5332 13.832 4.5332 12.8477V12.7715ZM5.62305 12.9004C5.62305 13.6035 5.78516 14.168 6.10938 14.5938C6.4375 15.0195 6.875 15.2324 7.42188 15.2324C7.97266 15.2324 8.41016 15.0176 8.73438 14.5879C9.05859 14.1543 9.2207 13.5488 9.2207 12.7715C9.2207 12.0762 9.05469 11.5137 8.72266 11.084C8.39453 10.6504 7.95703 10.4336 7.41016 10.4336C6.875 10.4336 6.44336 10.6465 6.11523 11.0723C5.78711 11.498 5.62305 12.1074 5.62305 12.9004Z" fill="black"/>
<path d="M26.5117 14.3184C26.5117 14.0254 26.4004 13.7988 26.1777 13.6387C25.959 13.4746 25.5742 13.334 25.0234 13.2168C24.4766 13.0996 24.041 12.959 23.7168 12.7949C23.3965 12.6309 23.1582 12.4355 23.002 12.209C22.8496 11.9824 22.7734 11.7129 22.7734 11.4004C22.7734 10.8809 22.9922 10.4414 23.4297 10.082C23.8711 9.72266 24.4336 9.54297 25.1172 9.54297C25.8359 9.54297 26.418 9.72852 26.8633 10.0996C27.3125 10.4707 27.5371 10.9453 27.5371 11.5234H26.4473C26.4473 11.2266 26.3203 10.9707 26.0664 10.7559C25.8164 10.541 25.5 10.4336 25.1172 10.4336C24.7227 10.4336 24.4141 10.5195 24.1914 10.6914C23.9688 10.8633 23.8574 11.0879 23.8574 11.3652C23.8574 11.627 23.9609 11.8242 24.168 11.957C24.375 12.0898 24.748 12.2168 25.2871 12.3379C25.8301 12.459 26.2695 12.6035 26.6055 12.7715C26.9414 12.9395 27.1895 13.1426 27.3496 13.3809C27.5137 13.6152 27.5957 13.9023 27.5957 14.2422C27.5957 14.8086 27.3691 15.2637 26.916 15.6074C26.4629 15.9473 25.875 16.1172 25.1523 16.1172C24.6445 16.1172 24.1953 16.0273 23.8047 15.8477C23.4141 15.668 23.1074 15.418 22.8848 15.0977C22.666 14.7734 22.5566 14.4238 22.5566 14.0488H23.6406C23.6602 14.4121 23.8047 14.7012 24.0742 14.916C24.3477 15.127 24.707 15.2324 25.1523 15.2324C25.5625 15.2324 25.8906 15.1504 26.1367 14.9863C26.3867 14.8184 26.5117 14.5957 26.5117 14.3184Z" fill="black"/>
<line x1="27.5429" y1="5.40779" x2="2.29355" y2="23.5873" stroke="black" stroke-width="1.00497"/>
<line x1="16.3379" y1="13.6314" x2="28.3378" y2="24.6314" stroke="black" stroke-width="0.999999"/>
</svg>
